<?xml version="1.0" standalone="no"?>
<!DOCTYPE svg PUBLIC "-//W3C//DTD SVG 20010904//EN"
 "http://www.w3.org/TR/2001/REC-SVG-20010904/DTD/svg10.dtd">
<svg version="1.0" xmlns="http://www.w3.org/2000/svg"
 width="332.000000pt" height="299.000000pt" viewBox="0 0 332.000000 299.000000"
 preserveAspectRatio="xMidYMid meet">

<g transform="translate(0.000000,299.000000) scale(0.100000,-0.100000)"
fill="#000000" stroke="none">
<path d="M1875 2705 c164 -26 312 -73 450 -143 89 -45 173 -98 187 -117 4 -5
8 -7 8 -2 0 4 15 -8 34 -27 18 -20 36 -33 38 -30 3 2 13 -7 22 -21 9 -14 21
-23 26 -20 6 4 10 2 10 -3 0 -5 14 -24 31 -41 22 -23 29 -39 25 -54 -4 -19 -3
-20 7 -6 11 15 17 11 50 -26 20 -24 37 -47 37 -51 0 -4 16 -31 35 -60 40 -59
41 -66 19 -88 -8 -9 -11 -16 -5 -16 5 0 12 4 16 10 3 5 12 7 20 4 8 -4 12 -10
9 -15 -3 -5 5 -19 18 -32 13 -13 35 -56 48 -96 22 -62 23 -73 10 -81 -33 -21
-43 -9 -84 104 -3 10 -9 17 -11 14 -2 -2 4 -28 15 -56 25 -64 25 -79 3 -86
-15 -4 35 1 71 7 18 4 47 -139 53 -258 4 -87 1 -145 -11 -213 -18 -103 -64
-252 -77 -252 -5 0 -9 -7 -9 -15 0 -23 -32 -85 -42 -79 -7 5 -13 -18 -9 -39 1
-5 -2 -6 -7 -4 -4 3 -15 -8 -25 -25 -16 -29 -16 -30 -1 -17 16 13 16 12 5 -9
-7 -12 -16 -20 -21 -17 -5 3 -12 0 -16 -6 -5 -8 -3 -9 6 -4 8 5 11 3 8 -6 -3
-8 -11 -13 -17 -11 -7 1 -10 -1 -7 -6 16 -27 -156 -201 -283 -285 -167 -111
-318 -175 -376 -159 -43 12 -37 33 13 50 24 8 41 16 39 18 -2 3 -16 0 -31 -6
-15 -5 -45 -10 -66 -10 -21 0 -42 -4 -45 -10 -8 -13 -25 -13 -25 0 0 6 14 17
31 24 l31 13 -33 7 c-29 7 -31 9 -15 15 41 16 -18 19 -85 5 -344 -73 -693 -15
-975 162 -109 68 -172 122 -253 216 -175 201 -271 493 -242 733 19 158 82 324
171 455 135 197 372 368 614 441 43 13 73 25 68 27 -17 5 -214 -64 -278 -98
-121 -65 -223 -141 -305 -228 -180 -189 -266 -370 -289 -609 -11 -123 -6 -188
26 -323 32 -130 93 -250 182 -357 35 -43 74 -87 85 -98 71 -67 142 -123 217
-172 47 -31 87 -59 90 -64 3 -4 18 -11 33 -14 15 -4 27 -11 27 -15 0 -4 16
-11 35 -14 20 -4 33 -11 30 -16 -3 -5 8 -8 23 -8 16 1 35 -2 41 -6 7 -5 27
-10 44 -13 18 -3 41 -10 52 -16 11 -6 26 -10 34 -8 8 1 10 -2 6 -9 -6 -9 -2
-9 15 0 18 10 21 9 15 -1 -6 -9 -3 -11 9 -6 21 8 126 -41 126 -59 0 -8 6 -14
14 -14 19 0 28 -15 32 -51 3 -25 0 -28 -37 -34 -22 -4 -68 -4 -102 -1 -52 4
-56 4 -27 -5 19 -5 103 -13 185 -18 l150 -8 -100 -3 c-99 -4 -99 -4 -25 -8
125 -6 396 30 383 51 -4 7 0 8 12 3 16 -6 55 2 105 21 8 3 21 7 28 9 8 1 22
10 33 19 11 11 25 15 36 11 9 -4 14 -4 10 0 -10 10 124 75 141 69 7 -3 11 -1
8 4 -3 5 24 26 60 47 35 21 92 59 124 86 60 48 77 58 64 36 -4 -7 -3 -8 5 -4
6 4 9 11 7 15 -6 9 128 144 135 136 3 -3 14 5 25 17 l19 23 -22 -19 c-13 -11
-23 -15 -23 -9 0 16 36 44 45 36 4 -5 5 -3 1 4 -3 6 18 49 47 95 293 456 233
1011 -150 1409 -181 188 -372 300 -644 380 -93 27 -227 50 -272 48 -12 -1 14
-7 58 -14z"/>
<path d="M1470 2515 c-406 -67 -727 -290 -887 -615 -59 -119 -85 -229 -90
-375 -11 -278 91 -521 304 -725 242 -233 560 -350 913 -337 322 13 592 124
811 332 206 196 309 430 309 701 0 251 -88 463 -275 662 -164 174 -378 291
-640 349 -98 21 -339 26 -445 8z m85 -65 c37 -5 42 -8 20 -9 -26 -2 -27 -4
-10 -10 19 -8 18 -9 -5 -13 -25 -5 -25 -5 3 -7 15 0 27 -5 27 -11 0 -8 -20
-13 -90 -23 -14 -2 43 -3 125 -3 104 0 177 -5 238 -17 319 -64 578 -248 704
-502 33 -66 68 -164 61 -171 -3 -2 -11 15 -18 38 -48 161 -173 326 -340 449
-79 59 -267 140 -355 153 -22 4 -3 -5 43 -19 193 -59 359 -175 480 -336 23
-31 42 -60 42 -66 0 -6 7 -16 15 -23 8 -7 15 -22 15 -34 0 -18 -2 -19 -11 -6
-8 11 -9 7 -5 -18 4 -20 2 -31 -4 -27 -6 3 -10 1 -10 -5 0 -7 -7 -9 -16 -6 -8
3 -26 -1 -39 -10 -13 -9 -28 -15 -32 -15 -4 1 -8 -4 -8 -11 0 -7 -11 -15 -25
-18 -14 -3 -30 -17 -37 -30 -9 -17 -13 -20 -13 -9 0 10 -20 58 -46 108 -64
129 -167 231 -296 294 -184 90 -368 99 -559 28 -164 -62 -321 -220 -380 -383
-12 -32 -24 -58 -26 -58 -10 0 11 67 35 115 99 198 274 331 497 378 39 9 58
16 44 16 -49 2 -180 -39 -259 -80 -139 -72 -278 -224 -325 -358 l-19 -51 -105
-2 c-150 -3 -160 -3 -167 -11 -31 -30 -18 32 26 129 69 153 197 288 390 411
90 58 160 88 263 114 48 12 85 24 83 26 -2 3 -42 -5 -88 -17 -75 -19 -87 -19
-123 -7 -38 13 -39 14 -15 22 14 4 35 16 47 27 l22 20 -6 -23 c-4 -22 -1 -21
29 11 20 21 41 34 52 32 11 -2 16 0 12 6 -12 20 69 26 159 12z m-282 -121 c7
0 -6 -7 -27 -15 -22 -8 -42 -12 -44 -9 -3 3 0 5 7 5 7 0 10 4 7 9 -7 11 14 21
32 15 8 -2 19 -4 25 -5z m-564 -770 c31 -11 41 -33 19 -43 -9 -3 -8 -8 5 -16
45 -29 -6 -60 -99 -60 l-54 0 0 59 c0 38 4 61 13 64 22 10 83 7 116 -4z m120
-15 c5 -26 13 -30 68 -29 41 1 48 4 53 25 3 13 11 25 18 28 19 6 16 -114 -3
-122 -11 -4 -15 2 -15 24 0 30 0 30 -59 30 -54 0 -59 -2 -65 -25 -11 -43 -24
-28 -28 31 -1 31 -1 58 1 60 9 9 26 -3 30 -22z m580 15 c38 -13 40 -34 5 -52
l-26 -14 26 -16 c25 -17 35 -37 17 -37 -4 0 -26 14 -47 30 -50 40 -97 39 -102
-2 -2 -16 -9 -28 -18 -28 -10 0 -14 14 -14 58 0 32 3 62 7 65 10 11 117 8 152
-4z m200 -24 c43 -49 65 -84 57 -92 -3 -4 -16 3 -29 15 -32 30 -111 31 -129 2
-12 -18 -38 -28 -38 -14 0 14 89 124 101 124 4 0 21 -16 38 -35z m236 25 c4
-6 -10 -10 -34 -10 l-41 0 0 -56 c0 -73 -24 -70 -28 4 l-3 52 -40 0 c-24 0
-38 4 -34 10 3 6 44 10 90 10 46 0 87 -4 90 -10z m538 -4 c18 -7 43 -25 56
-40 33 -35 41 -33 41 13 0 32 3 39 18 37 13 -2 18 -15 20 -59 3 -54 2 -57 -21
-57 -13 0 -44 16 -68 35 l-44 35 -3 -35 c-2 -27 -8 -35 -23 -35 -17 0 -19 7
-19 60 0 33 2 60 5 60 3 0 20 -6 38 -14z m352 -6 c-3 -5 -33 -26 -67 -47 l-62
-38 70 -6 c68 -5 68 -5 -28 -7 -54 -1 -98 0 -98 3 0 3 25 21 55 41 30 20 55
40 55 43 0 3 -20 5 -45 4 -29 -1 -45 2 -45 10 0 9 24 11 85 9 47 -2 83 -7 80
-12z m-1557 -44 c23 -30 42 -57 42 -60 0 -14 -31 -4 -42 14 -19 29 -103 28
-135 -2 -39 -36 -35 -14 8 45 52 74 71 74 127 3z m875 22 c-1 -16 2 -28 8 -28
12 0 12 -37 0 -45 -5 -3 -48 -8 -95 -11 l-86 -5 0 61 0 61 88 -3 87 -3 -2 -27z
m178 23 c-87 -8 -96 -31 -12 -31 77 0 80 -18 4 -22 -46 -2 -59 -7 -61 -20 -3
-16 5 -18 63 -18 36 0 64 -3 62 -7 -3 -5 -41 -7 -86 -5 l-81 4 0 54 0 54 88
-2 87 -1 -64 -6z m-1230 -254 c-17 -17 -13 -37 20 -107 30 -64 92 -155 133
-195 29 -28 128 -110 135 -111 21 -3 40 -18 34 -27 -4 -6 -1 -7 6 -3 11 7 38
-18 96 -86 8 -10 12 -25 8 -34 -5 -13 -3 -15 7 -9 10 6 12 4 7 -10 -4 -9 -2
-24 4 -31 9 -12 3 -14 -34 -14 -25 0 -54 -3 -64 -6 -15 -5 -16 -4 -3 6 12 9
10 11 -12 6 -15 -3 -30 -1 -33 5 -4 6 -13 8 -19 6 -17 -7 -161 62 -237 113
-146 98 -292 284 -343 436 l-24 69 142 5 c158 6 193 3 177 -13z m1629 2 c0 -5
-24 -10 -52 -10 -29 -1 -43 -4 -30 -6 12 -2 22 -6 22 -8 0 -3 -11 -34 -25 -71
-28 -74 -112 -219 -158 -271 -70 -80 -214 -169 -335 -208 -44 -15 -57 -15 -82
-5 -39 16 -110 67 -110 79 0 5 14 14 30 21 46 19 31 21 -25 4 -80 -24 -256
-30 -349 -10 -132 27 -298 122 -367 210 -30 38 -10 31 31 -10 80 -82 220 -157
338 -183 74 -15 225 -14 299 4 196 46 356 175 449 359 24 48 44 94 44 102 0
11 31 14 153 16 159 3 167 3 167 -13z"/>
<path d="M1438 2443 c7 -3 16 -2 19 1 4 3 -2 6 -13 5 -11 0 -14 -3 -6 -6z"/>
<path d="M1638 2353 c7 -3 16 -2 19 1 4 3 -2 6 -13 5 -11 0 -14 -3 -6 -6z"/>
<path d="M1758 2343 c12 -2 30 -2 40 0 9 3 -1 5 -23 4 -22 0 -30 -2 -17 -4z"/>
<path d="M1848 2333 c7 -3 16 -2 19 1 4 3 -2 6 -13 5 -11 0 -14 -3 -6 -6z"/>
<path d="M610 1530 c0 -16 7 -20 38 -20 20 0 43 4 51 9 24 15 1 31 -45 31 -37
0 -44 -3 -44 -20z"/>
<path d="M610 1481 c0 -19 6 -21 56 -21 47 0 55 3 52 18 -2 13 -15 18 -56 20
-47 3 -52 1 -52 -17z"/>
<path d="M1280 1529 c0 -20 4 -21 60 -17 33 2 62 7 66 10 16 16 -12 28 -67 28
-53 0 -59 -2 -59 -21z"/>
<path d="M1547 1522 c-24 -27 -21 -32 18 -32 38 0 42 6 21 33 -16 21 -19 21
-39 -1z"/>
<path d="M1092 1520 c-17 -28 -16 -30 16 -30 38 0 46 9 25 32 -20 23 -25 23
-41 -2z"/>
<path d="M1930 1533 c0 -9 15 -13 45 -13 25 0 45 5 45 10 0 11 0 11 -52 14
-25 1 -38 -3 -38 -11z"/>
<path d="M1930 1480 c0 -19 5 -21 48 -18 34 2 47 7 47 18 0 11 -13 16 -47 18
-43 3 -48 1 -48 -18z"/>
<path d="M575 2110 c-3 -6 1 -7 9 -4 18 7 21 14 7 14 -6 0 -13 -4 -16 -10z"/>
<path d="M2815 2000 c-3 -5 -1 -10 4 -10 6 0 11 5 11 10 0 6 -2 10 -4 10 -3 0
-8 -4 -11 -10z"/>
<path d="M2820 1880 c6 -11 13 -20 16 -20 2 0 0 9 -6 20 -6 11 -13 20 -16 20
-2 0 0 -9 6 -20z"/>
<path d="M2872 1208 c-5 -7 -13 -24 -17 -38 -7 -23 -6 -23 19 6 14 18 26 35
26 38 0 10 -17 6 -28 -6z"/>
<path d="M355 1196 c-17 -12 -17 -16 -4 -47 l14 -34 6 45 c4 25 6 46 4 47 -1
2 -10 -3 -20 -11z"/>
<path d="M416 1195 c4 -8 7 -15 9 -15 2 0 5 7 9 15 3 9 0 15 -9 15 -9 0 -12
-6 -9 -15z"/>
<path d="M2907 1191 c-4 -17 -3 -21 5 -13 5 5 8 16 6 23 -3 8 -7 3 -11 -10z"/>
<path d="M2940 1190 c-6 -12 -9 -24 -7 -27 3 -2 11 5 17 17 6 12 9 24 7 27 -3
2 -11 -5 -17 -17z"/>
<path d="M510 980 c0 -5 5 -10 10 -10 6 0 10 5 10 10 0 6 -4 10 -10 10 -5 0
-10 -4 -10 -10z"/>
<path d="M2756 965 c-21 -32 -21 -46 0 -17 9 13 26 27 38 32 l21 9 -21 0 c-12
1 -29 -10 -38 -24z"/>
<path d="M463 963 c-17 -6 -16 -23 1 -46 13 -16 14 -15 13 17 -1 20 -1 36 -1
35 -1 0 -7 -3 -13 -6z"/>
<path d="M2825 943 l-17 -28 23 22 c12 12 20 25 17 28 -3 3 -13 -7 -23 -22z"/>
<path d="M2793 948 c-15 -20 -25 -38 -20 -38 3 0 12 11 21 25 17 26 16 35 -1
13z"/>
<path d="M2614 786 c-10 -8 -16 -17 -13 -20 3 -3 14 1 25 8 10 8 16 17 13 20
-3 3 -14 -1 -25 -8z"/>
<path d="M2669 743 c-13 -17 -13 -17 6 -3 11 8 22 16 24 17 2 2 0 3 -6 3 -6 0
-17 -8 -24 -17z"/>
<path d="M2414 615 c-18 -13 -18 -14 4 -8 12 3 25 9 28 14 8 14 -10 11 -32 -6z"/>
<path d="M2474 574 c-18 -14 -18 -15 4 -4 12 6 22 13 22 15 0 8 -5 6 -26 -11z"/>
<path d="M927 409 c7 -7 15 -10 18 -7 3 3 -2 9 -12 12 -14 6 -15 5 -6 -5z"/>
<path d="M1198 408 c5 -5 16 -8 23 -6 8 3 3 7 -10 11 -17 4 -21 3 -13 -5z"/>
<path d="M1279 393 c-13 -16 -12 -17 4 -4 16 13 21 21 13 21 -2 0 -10 -8 -17
-17z"/>
<path d="M990 380 c8 -5 20 -10 25 -10 6 0 3 5 -5 10 -8 5 -19 10 -25 10 -5 0
-3 -5 5 -10z"/>
<path d="M1110 330 c8 -5 20 -10 25 -10 6 0 3 5 -5 10 -8 5 -19 10 -25 10 -5
0 -3 -5 5 -10z"/>
<path d="M1468 243 c7 -3 16 -2 19 1 4 3 -2 6 -13 5 -11 0 -14 -3 -6 -6z"/>
</g>
</svg>
