<svg xmlns="http://www.w3.org/2000/svg" width="40.865" height="38.358" viewBox="0 0 40.865 38.358">
  <path id="Path_24" data-name="Path 24" d="M480.456,84.269a12.068,12.068,0,0,0,5.186-3.965l-.063-.033a22.721,22.721,0,0,1-6.326,2.324,36.7,36.7,0,0,1-3.429-6.374,27.008,27.008,0,0,0,8.739.059l-.062-.1c-2.811-.284-7.567-1.3-9.649-2.542-.4-1.2-.745-2.4-1.029-3.583-.212-.914-.4-1.881-.6-2.992q-.03-.187-.059-.372c2.748,2.668,7.813,4.547,10.762,4.97l-.056-.127c-4.836-2.117-9.534-5.877-11.069-7.911a43.075,43.075,0,0,1-.111-5.3,16.481,16.481,0,0,0,6.617,5.289l-.028-.128a26.973,26.973,0,0,1-6.269-8.773c0-.029.008-.059.012-.09q.081-.576.176-1.116c.015-.086.031-.172.047-.258l.008-.044,0-.009.012-.066c.015-.08.031-.16.047-.239q.081-.412.171-.8c2.5,4.082,9.525,9.731,13.016,11.445-2.441.557-4.376,3.042,2.713,7.548l1.936-7.858h3.974a1.565,1.565,0,0,1,1.259.419,2.921,2.921,0,0,1,.564,1.8c-.276-.406-2.457-.83-1.693,1.557l1.449,4.243c7.392-4.608,5.438-7.145,2.97-7.708,3.49-1.714,10.517-7.363,13.015-11.445q.09.387.171.8l.048.239.011.066,0,.009.01.044c.016.086.03.173.046.258.063.36.124.732.177,1.116,0,.031.008.061.011.09A26.947,26.947,0,0,1,506.9,63.49l-.027.128a16.473,16.473,0,0,0,6.616-5.289,43.414,43.414,0,0,1-.111,5.3c-1.535,2.034-6.233,5.793-11.07,7.911l-.056.127c2.949-.423,8.016-2.3,10.763-4.97-.019.123-.038.247-.059.372-.2,1.111-.386,2.078-.6,2.992-.284,1.187-.624,2.384-1.028,3.583-2.083,1.246-6.839,2.258-9.651,2.542l-.06.1a27.007,27.007,0,0,0,8.739-.059,36.825,36.825,0,0,1-3.431,6.374,22.728,22.728,0,0,1-6.325-2.324l-.063.033a12.064,12.064,0,0,0,5.184,3.965,35.769,35.769,0,0,1-6.033,6.184l-2.778-9.228-3.819,5.789-3.819-5.789-2.778,9.228A35.775,35.775,0,0,1,480.456,84.269Z" transform="translate(-472.655 -52.095)" fill="#c8061a" fill-rule="evenodd"/>
</svg>
