<?xml version="1.0" standalone="no"?>
<!DOCTYPE svg PUBLIC "-//W3C//DTD SVG 20010904//EN"
 "http://www.w3.org/TR/2001/REC-SVG-20010904/DTD/svg10.dtd">
<svg version="1.0" xmlns="http://www.w3.org/2000/svg"
 width="400.000000pt" height="400.000000pt" viewBox="0 0 400.000000 400.000000"
 preserveAspectRatio="xMidYMid meet">
<metadata>
Created by potrace 1.16, written by Peter Selinger 2001-2019
</metadata>
<g transform="translate(0.000000,400.000000) scale(0.100000,-0.100000)"
fill="#000000" stroke="none">
<path d="M210 2380 c-19 -19 -20 -33 -20 -375 l0 -355 24 -15 c20 -14 70 -15
371 -13 330 3 347 4 361 22 11 16 14 83 14 367 l0 348 -26 20 c-26 20 -38 21
-365 21 -326 0 -340 -1 -359 -20z m572 -145 c21 -35 38 -68 38 -74 0 -8 -78
-11 -245 -11 -135 0 -245 -2 -245 -3 0 -2 54 -98 120 -212 66 -115 119 -209
118 -211 -6 -5 -35 -6 -99 -5 l-67 1 -73 128 c-40 70 -77 134 -83 144 -8 13 9
48 74 162 l84 146 171 0 170 0 37 -65z m91 -156 l39 -71 -84 -146 -84 -145
-80 2 c-43 1 -80 4 -82 6 -5 4 240 425 247 425 3 0 23 -32 44 -71z"/>
<path d="M2053 2306 c-295 -68 -446 -364 -293 -575 58 -80 203 -133 314 -114
l48 8 39 109 39 108 -59 -7 c-71 -8 -118 10 -144 54 -22 38 -21 73 3 120 30
60 81 86 160 85 36 -1 76 -6 90 -12 24 -9 26 -7 56 77 50 138 49 127 12 141
-53 18 -195 21 -265 6z"/>
<path d="M3369 2305 c-113 -31 -218 -116 -260 -210 -11 -25 -22 -45 -24 -45
-4 0 0 96 10 203 l4 47 -113 0 -113 0 -88 -164 c-49 -91 -91 -164 -92 -162 -2
2 -10 61 -18 132 -9 71 -18 144 -21 162 l-5 32 -113 0 -113 0 -58 -167 c-32
-93 -84 -243 -116 -335 -67 -193 -73 -178 72 -178 58 0 90 4 96 13 5 6 27 64
48 127 22 63 42 119 46 123 3 5 12 -43 18 -105 19 -173 11 -160 95 -155 l71 3
70 126 c39 70 74 130 79 135 4 4 5 -26 2 -67 -3 -41 -7 -102 -8 -135 l-3 -60
110 0 110 0 2 25 c1 14 5 70 9 125 l6 100 28 -60 c64 -139 197 -214 360 -202
113 8 183 38 257 112 51 52 64 72 82 129 12 38 21 83 21 101 0 67 6 65 -190
65 l-177 0 -12 -62 c-7 -35 -14 -71 -17 -80 -4 -15 4 -17 63 -20 l68 -3 -32
-17 c-18 -10 -53 -18 -78 -18 -38 0 -52 5 -75 28 -95 95 -21 272 109 259 23
-3 56 -15 73 -27 l29 -22 97 39 c60 24 98 45 100 55 5 24 -64 96 -117 123 -88
44 -201 56 -292 30z"/>
<path d="M1163 2258 c13 -24 52 -94 86 -155 l63 -113 -22 -27 c-12 -16 -89
-96 -171 -179 -82 -83 -149 -154 -149 -156 0 -3 16 -4 35 -4 39 1 59 19 257
228 l120 128 -88 160 c-87 157 -89 160 -122 160 l-34 0 25 -42z"/>
<path d="M1250 2294 c0 -13 152 -284 159 -284 5 0 70 65 145 145 l138 145 -41
0 c-36 0 -45 -5 -83 -50 -24 -27 -47 -50 -53 -50 -5 0 -21 21 -35 48 l-25 47
-102 3 c-57 1 -103 0 -103 -4z"/>
<path d="M1583 2140 c-84 -87 -153 -164 -152 -172 0 -7 42 -87 93 -178 l92
-165 91 -1 91 -1 -53 48 c-35 32 -61 69 -80 110 -25 56 -27 70 -23 149 3 73 9
98 36 152 35 72 108 149 179 190 l48 28 -85 -1 -85 -1 -152 -158z"/>
<path d="M1290 1833 c-58 -60 -127 -131 -154 -160 l-49 -51 116 0 116 1 62 63
62 63 36 -61 c29 -49 42 -62 64 -64 15 -1 27 1 27 6 0 12 -163 310 -170 310
-3 0 -53 -48 -110 -107z"/>
</g>
</svg>
